<svg>
<defs>
    <linearGradient id="skalarly-gradient" x1="0%" y1="0%" x2="100%" y2="100%">
        <stop offset="0%" style="stop-color: var(--firstChoice);"/>
        <stop offset="100%" style="stop-color: var(--secondChoice);"/>
    </linearGradient>
<symbol id="skalarly-icon" viewBox="0 0 1024 1024">
<g transform="translate(0.000000,1024.000000) scale(0.100000,-0.100000)"
fill="#000000" stroke="none">
<path d="M5897 8455 c-288 -41 -593 -191 -851 -419 -354 -313 -672 -894 -891
-1630 -14 -48 -24 -90 -22 -92 2 -2 40 37 84 88 283 326 644 574 1008 691 162
53 285 77 490 98 61 6 113 13 118 16 4 2 7 46 7 96 1 425 285 684 640 586 109
-30 194 -81 280 -168 118 -120 170 -251 157 -399 -9 -105 -33 -159 -97 -224
-62 -61 -101 -78 -185 -78 -93 1 -165 51 -189 131 -23 77 16 149 80 149 49 0
61 -29 33 -78 -28 -48 -21 -68 29 -83 109 -32 200 103 146 217 -53 110 -212
158 -331 98 -108 -53 -162 -144 -163 -269 0 -68 4 -89 30 -143 74 -156 241
-244 436 -229 205 15 388 187 465 437 20 63 23 97 23 210 0 115 -3 149 -26
230 -105 379 -390 652 -783 751 -106 27 -351 34 -488 14z m508 -235 c97 -30
198 -85 253 -137 l47 -44 -40 17 c-182 76 -316 101 -485 90 -128 -8 -206 -24
-345 -70 -59 -20 -109 -36 -113 -36 -3 0 12 18 33 41 67 68 184 128 320 163
11 3 74 3 140 2 88 -3 138 -10 190 -26z m-905 -85 c26 -31 -18 -71 -47 -42
-19 19 -8 57 16 57 10 0 24 -7 31 -15z m-187 -246 c-20 -206 -17 -223 68 -313
68 -74 76 -99 27 -88 -18 3 -72 7 -119 7 -77 0 -90 -3 -128 -28 -23 -15 -56
-48 -74 -73 -50 -71 -63 -58 -59 61 4 123 -11 166 -78 229 -47 44 -80 84 -80
97 0 16 32 17 82 3 69 -19 154 -19 199 0 33 14 112 86 132 121 12 23 32 12 30
-16z m1591 -8 c10 -16 -5 -41 -24 -41 -23 0 -34 16 -26 35 6 16 42 20 50 6z
m-1260 -43 c9 -12 16 -28 16 -35 0 -18 -37 -53 -55 -53 -8 0 -24 9 -35 20 -11
11 -20 27 -20 35 0 21 36 55 59 55 11 0 27 -10 35 -22z m-4 -418 c22 -40 -26
-80 -58 -48 -25 25 -6 68 30 68 9 0 22 -9 28 -20z m-936 -286 c34 -34 8 -84
-44 -84 -49 0 -69 47 -37 88 13 17 62 15 81 -4z"/>
<path d="M4575 8367 c-7 -18 -17 -45 -20 -59 -12 -46 -57 -88 -115 -108 -65
-22 -76 -45 -28 -55 83 -18 144 -82 163 -173 10 -48 33 -37 55 25 32 91 57
117 144 146 55 19 55 32 -1 47 -70 20 -117 68 -143 146 -12 35 -26 64 -31 64
-6 0 -16 -15 -24 -33z"/>
<path d="M3890 7997 c-8 -17 -27 -38 -42 -45 -35 -16 -36 -40 -3 -48 14 -3 32
-19 41 -35 19 -37 35 -37 56 1 9 16 28 32 42 36 39 9 40 32 2 48 -20 8 -37 25
-45 45 -17 39 -32 39 -51 -2z"/>
<path d="M4064 7693 c-27 -84 -55 -115 -119 -133 -50 -14 -59 -37 -17 -45 65
-13 96 -38 119 -95 23 -58 39 -73 49 -43 28 82 45 102 105 124 33 12 58 26 56
32 -2 6 -27 19 -56 30 -57 22 -86 56 -97 115 -7 35 -31 44 -40 15z"/>
<path d="M3502 7358 c-5 -7 -21 -64 -36 -126 -49 -212 -102 -275 -271 -327
-90 -28 -91 -44 -2 -67 94 -25 138 -49 185 -104 46 -52 72 -112 97 -229 17
-80 34 -113 53 -101 5 3 20 50 32 103 26 112 55 184 94 230 33 39 157 103 200
103 38 0 76 24 61 38 -5 5 -32 15 -60 22 -174 45 -242 125 -291 342 -14 62
-27 115 -30 120 -7 12 -20 10 -32 -4z"/>
<path d="M5755 7063 c-362 -47 -754 -223 -1092 -490 -43 -34 -140 -124 -215
-200 -208 -210 -326 -359 -538 -678 -73 -110 -160 -236 -193 -279 -51 -68 -56
-78 -36 -73 82 20 465 74 595 83 76 6 85 9 100 33 36 55 142 180 228 269 113
116 223 205 391 314 287 187 502 273 710 284 101 5 101 4 -45 -52 -100 -38
-264 -118 -315 -153 -37 -26 -33 -26 40 -1 120 41 370 75 479 64 79 -7 71 -18
-19 -29 -150 -17 -415 -105 -601 -198 -94 -47 -229 -133 -354 -225 -63 -47
-288 -261 -278 -265 2 -1 194 0 428 3 l425 6 132 57 c191 83 278 101 488 101
128 0 185 -4 230 -17 32 -9 60 -15 62 -14 1 2 -27 43 -62 92 -154 215 -312
582 -399 930 -27 106 -76 380 -76 421 0 25 -9 27 -85 17z m-218 -239 c8 -22
-10 -49 -32 -49 -10 0 -22 7 -28 16 -15 24 -1 49 28 49 15 0 28 -7 32 -16z
m-178 -170 c65 -54 22 -164 -64 -164 -27 0 -44 8 -66 29 -21 22 -29 39 -29 66
0 27 8 44 29 66 39 38 87 39 130 3z m341 -45 c13 -24 -2 -49 -31 -49 -22 0
-35 36 -19 55 17 21 37 19 50 -6z m-776 -118 c8 -64 37 -99 87 -107 41 -7 65
-26 54 -44 -3 -5 -14 -10 -24 -10 -64 0 -102 -38 -116 -114 -8 -39 -31 -58
-45 -36 -4 7 -11 30 -14 50 -7 48 -43 82 -98 95 -52 13 -64 41 -21 50 82 18
101 37 123 123 8 30 16 42 29 42 14 0 20 -11 25 -49z m-258 -426 c11 -16 11
-25 1 -45 -30 -60 -113 -17 -86 44 10 22 18 26 42 24 16 -2 36 -12 43 -23z
m1222 -161 c37 -26 23 -74 -23 -74 -42 0 -59 44 -29 74 19 20 24 20 52 0z
m-380 -117 c19 -40 -5 -77 -51 -77 -39 0 -57 15 -57 49 0 62 82 83 108 28z"/>
<path d="M6600 6335 c-5 -14 -12 -36 -16 -49 -8 -33 -53 -73 -99 -89 -52 -18
-51 -37 4 -53 57 -16 86 -46 103 -101 7 -24 18 -49 25 -55 15 -12 33 -2 33 20
0 9 9 36 20 59 15 34 29 47 67 64 74 33 74 33 76 43 1 5 -22 17 -52 27 -62 20
-85 44 -105 109 -15 53 -41 64 -56 25z"/>
<path d="M3512 5998 c-5 -7 -12 -22 -16 -34 -3 -11 -22 -28 -41 -37 -43 -21
-44 -35 -4 -49 21 -7 36 -22 45 -44 17 -42 32 -43 47 -5 6 17 25 36 44 45 41
19 42 41 3 54 -19 7 -34 23 -44 46 -17 40 -19 42 -34 24z"/>
<path d="M7020 5856 c-13 -40 -35 -62 -72 -71 -40 -10 -34 -29 12 -48 32 -12
45 -25 58 -56 9 -23 22 -41 29 -41 7 0 21 20 32 44 16 38 25 46 60 56 23 6 41
16 41 23 0 7 -20 20 -44 30 -34 14 -46 26 -59 57 -19 49 -42 51 -57 6z"/>
<path d="M5985 5481 c-39 -9 -76 -20 -83 -25 -23 -14 -12 -26 23 -26 82 0 616
-69 658 -86 31 -11 18 13 -20 39 -61 42 -165 86 -239 102 -93 20 -251 18 -339
-4z"/>
<path d="M4635 5323 c-239 -15 -657 -54 -835 -78 -322 -43 -654 -108 -873
-171 -250 -72 -422 -157 -468 -230 -25 -40 -28 -104 -6 -137 83 -127 312 -238
709 -342 101 -26 365 -85 383 -85 1 0 5 51 7 113 8 190 72 333 202 455 166
155 414 224 936 262 202 15 707 12 920 -5 519 -41 766 -109 921 -253 61 -56
92 -109 115 -195 25 -94 22 -101 -53 -143 -125 -69 -232 -145 -315 -225 l-83
-80 65 6 c479 43 993 168 1295 315 134 65 203 119 235 184 18 38 20 51 11 83
-47 173 -566 352 -1286 443 -534 67 -922 91 -1425 88 -228 -1 -433 -4 -455 -5z"/>
<path d="M4835 4890 c-244 -14 -491 -54 -636 -101 -210 -69 -334 -216 -359
-426 -35 -287 101 -513 389 -650 128 -60 258 -97 716 -204 99 -23 223 -57 275
-75 301 -107 420 -334 297 -567 -36 -69 -89 -117 -172 -157 -88 -43 -170 -53
-369 -47 -140 4 -190 10 -276 31 -363 92 -652 320 -801 634 l-31 64 -166 -164
c-92 -91 -193 -184 -224 -207 -67 -50 -68 -57 -34 -157 39 -116 89 -213 176
-344 247 -371 624 -603 1125 -693 162 -29 488 -31 645 -4 540 93 919 348 1092
738 68 155 82 222 82 404 0 153 -1 164 -32 255 -68 204 -192 357 -404 497
-225 148 -527 253 -1080 373 -296 65 -363 91 -398 161 -26 50 -25 85 3 139 29
57 84 86 196 102 225 31 731 -60 946 -170 39 -20 73 -37 76 -37 4 0 43 41 88
92 95 108 206 199 331 273 50 29 89 54 88 55 -7 7 -327 86 -438 109 -344 69
-747 97 -1105 76z"/>
</g>
</symbol>
  </defs>
</svg>